# xmcd
#
# Track frame offsets:
#	150
#	27699
#	51885
#	79775
#	97781
#	121031
#	139710
#	166522
#	187049
#	200331
#	242599
#	259240
#	280695
#	302573
#	332666
#
# Disc length: 4774 seconds
#
# Revision: 0
# Processed by: cddbd v1.5.2PL0 Copyright (c) Steve Scherf et al.
# Submitted via: EasyCDDAExtractor 8.2.3.1
#
DISCID=c212a40f
DTITLE=Various Artist - Blues On the Road  CD-1
DYEAR=2000
DGENRE=Blues
TTITLE0=JAMES SOLBERG - L.A.Blues
TTITLE1=COLIN JAMES - Freedom
TTITLE2=BIG MIKE GRIFFIN - You'll Know
TTITLE3=TINO GONZALES - Tequila Nights
TTITLE4=JONNY LANG -  Darker Side
TTITLE5=JOHN MAYALL - Ain't No Brakeman
TTITLE6=MIKE MORGAN and The CRAWL - Cold Wind
TTITLE7=TONY JOE WHITE - Cold Fingers
TTITLE8=LLOYD JONES - Love Gotcha
TTITLE9=RICK DERRINGER - Something Inside of Me
TTITLE10=DUKE ROBILLARD - Live to Give
TTITLE11=JOHNNY WINTER - White Line Blues
TTITLE12=CHARLIE MUSSELWHITE - No
TTITLE13=COCO MONTOYA - Am I Lo Sing You
TTITLE14=DAVE GOODMAN - King of the Hill
EXTD=
EXTT0=
EXTT1=
EXTT2=
EXTT3=
EXTT4=
EXTT5=
EXTT6=
EXTT7=
EXTT8=
EXTT9=
EXTT10=
EXTT11=
EXTT12=
EXTT13=
EXTT14=
PLAYORDER=
